<svg width="54" height="53" viewBox="0 0 54 53" fill="none" xmlns="http://www.w3.org/2000/svg">
<path d="M26.6784 26.5C30.2131 26.5 33.603 25.104 36.1024 22.6192C38.6018 20.1343 40.0059 16.7641 40.0059 13.25C40.0059 9.73588 38.6018 6.36569 36.1024 3.88084C33.603 1.39598 30.2131 0 26.6784 0C23.1437 0 19.7538 1.39598 17.2545 3.88084C14.7551 6.36569 13.3509 9.73588 13.3509 13.25C13.3509 16.7641 14.7551 20.1343 17.2545 22.6192C19.7538 25.104 23.1437 26.5 26.6784 26.5ZM35.5634 13.25C35.5634 15.5927 34.6273 17.8395 32.961 19.4961C31.2948 21.1527 29.0349 22.0833 26.6784 22.0833C24.322 22.0833 22.062 21.1527 20.3958 19.4961C18.7295 17.8395 17.7934 15.5927 17.7934 13.25C17.7934 10.9073 18.7295 8.66046 20.3958 7.00389C22.062 5.34732 24.322 4.41667 26.6784 4.41667C29.0349 4.41667 31.2948 5.34732 32.961 7.00389C34.6273 8.66046 35.5634 10.9073 35.5634 13.25ZM53.3334 48.5833C53.3334 53 48.8909 53 48.8909 53H4.46593C4.46593 53 0.0234375 53 0.0234375 48.5833C0.0234375 44.1667 4.46593 30.9167 26.6784 30.9167C48.8909 30.9167 53.3334 44.1667 53.3334 48.5833ZM48.8909 48.5657C48.8864 47.4792 48.2067 44.2108 45.1947 41.2163C42.2982 38.3367 36.8473 35.3333 26.6784 35.3333C16.5051 35.3333 11.0586 38.3367 8.16209 41.2163C5.15008 44.2108 4.47482 47.4792 4.46593 48.5657H48.8909Z" fill="black"/>
</svg>
