<svg id="Слой_1" data-name="Слой 1" xmlns="http://www.w3.org/2000/svg" xmlns:xlink="http://www.w3.org/1999/xlink" viewBox="0 0 367.62 333.65"><defs><style>.cls-1{fill:none;}.cls-2{clip-path:url(#clip-path);}</style><clipPath id="clip-path" transform="translate(-499 -217)"><rect class="cls-1" x="499" y="217" width="367.92" height="334"/></clipPath></defs><title>online-shopping-cart</title><g class="cls-2"><path d="M512.6,244.2h39L607.12,445a13.6,13.6,0,0,0,13.15,10H791a13.62,13.62,0,0,0,12.46-8.16L865.52,304a13.78,13.78,0,0,0-1.13-12.92A13.52,13.52,0,0,0,853.05,285H591c1,3.72,6.72,24.32,7.52,27.2H832.2L781.88,427.8H630.46L574.93,227a13.59,13.59,0,0,0-13.14-10H512.6a13.6,13.6,0,0,0,0,27.2Zm0,0" transform="translate(-499 -217)"/></g><path d="M607.35,550.65a30.83,30.83,0,1,0-30.83-30.82,30.85,30.85,0,0,0,30.83,30.82Zm0,0" transform="translate(-499 -217)"/><path d="M800,550.65h2.27a31.88,31.88,0,1,0-2.27,0Zm0,0" transform="translate(-499 -217)"/></svg>