<svg xmlns="http://www.w3.org/2000/svg" width="124" height="247.999" viewBox="0 0 12 24">
  <metadata><?xpacket begin="﻿" id="W5M0MpCehiHzreSzNTczkc9d"?>
<x:xmpmeta xmlns:x="adobe:ns:meta/" x:xmptk="Adobe XMP Core 5.6-c142 79.160924, 2017/07/13-01:06:39        ">
   <rdf:RDF xmlns:rdf="http://www.w3.org/1999/02/22-rdf-syntax-ns#">
      <rdf:Description rdf:about=""/>
   </rdf:RDF>
</x:xmpmeta>
                                                                                                    
                                                                                                    
                                                                                                    
                                                                                                    
                                                                                                    
                                                                                                    
                                                                                                    
                                                                                                    
                                                                                                    
                                                                                                    
                                                                                                    
                                                                                                    
                                                                                                    
                                                                                                    
                                                                                                    
                                                                                                    
                                                                                                    
                                                                                                    
                                                                                                    
                                                                                                    
                           
<?xpacket end="w"?></metadata>
<defs>
    <style>
      .cls-1 {
        fill: #d66a40;
      }

      .cls-1, .cls-2 {
        fill-rule: evenodd;
      }

      .cls-2 {
        fill: #292928;
      }
    </style>
  </defs>
  <path id="Прямоугольник_826" data-name="Прямоугольник 826" class="cls-1" d="M1205.76,443.343l9.9,9.9a1,1,0,0,1-1.42,1.414l-9.9-9.9A1,1,0,0,1,1205.76,443.343Z" transform="translate(-1204 -431.031)"/>
  <path id="Прямоугольник_826_копия" data-name="Прямоугольник 826 копия" class="cls-1" d="M1204.28,453.292l9.98-9.978a1.009,1.009,0,0,1,1.43,1.425l-9.98,9.978A1.009,1.009,0,1,1,1204.28,453.292Z" transform="translate(-1204 -431.031)"/>
  <path id="Прямоугольник_826-2" data-name="Прямоугольник 826" class="cls-2" d="M1205.76,431.343l9.9,9.9a1,1,0,0,1-1.42,1.415l-9.9-9.9A1,1,0,0,1,1205.76,431.343Z" transform="translate(-1204 -431.031)"/>
  <path id="Прямоугольник_826_копия-2" data-name="Прямоугольник 826 копия" class="cls-2" d="M1204.28,441.291l9.98-9.977a1.009,1.009,0,0,1,1.43,1.425l-9.98,9.978A1.01,1.01,0,1,1,1204.28,441.291Z" transform="translate(-1204 -431.031)"/>
</svg>
