<svg xmlns="http://www.w3.org/2000/svg" width="123.999" height="107.466" viewBox="0 0 15 13">
  <metadata><?xpacket begin="﻿" id="W5M0MpCehiHzreSzNTczkc9d"?>
<x:xmpmeta xmlns:x="adobe:ns:meta/" x:xmptk="Adobe XMP Core 5.6-c142 79.160924, 2017/07/13-01:06:39        ">
   <rdf:RDF xmlns:rdf="http://www.w3.org/1999/02/22-rdf-syntax-ns#">
      <rdf:Description rdf:about=""/>
   </rdf:RDF>
</x:xmpmeta>
                                                                                                    
                                                                                                    
                                                                                                    
                                                                                                    
                                                                                                    
                                                                                                    
                                                                                                    
                                                                                                    
                                                                                                    
                                                                                                    
                                                                                                    
                                                                                                    
                                                                                                    
                                                                                                    
                                                                                                    
                                                                                                    
                                                                                                    
                                                                                                    
                                                                                                    
                                                                                                    
                           
<?xpacket end="w"?></metadata>
<defs>
    <style>
      .cls-1 {
        fill: #292928;
        fill-rule: evenodd;
      }
    </style>
  </defs>
  <path id="Forma_1" data-name="Forma 1" class="cls-1" d="M916.416,244.106H913.53V243.55a0.587,0.587,0,0,0-1.172,0v0.556h-5.714V243.55a0.587,0.587,0,0,0-1.172,0v0.556h-2.886a0.568,0.568,0,0,0-.586.55v10.79a0.569,0.569,0,0,0,.586.551h13.83a0.569,0.569,0,0,0,.586-0.551v-10.79A0.568,0.568,0,0,0,916.416,244.106ZM915.83,254.9H903.172v-9.689h2.3v0.555a0.587,0.587,0,0,0,1.172,0v-0.555h5.714v0.555a0.587,0.587,0,0,0,1.172,0v-0.555h2.3V254.9Zm-6.329-6.721a0.745,0.745,0,1,1-.791.744A0.768,0.768,0,0,1,909.5,248.175Zm0,3.236a0.745,0.745,0,1,1-.791.743A0.768,0.768,0,0,1,909.5,251.411Zm-3.443-3.236a0.745,0.745,0,1,1-.791.744A0.768,0.768,0,0,1,906.058,248.175Zm6.886,0a0.745,0.745,0,1,1-.791.744A0.768,0.768,0,0,1,912.944,248.175Zm-6.886,3.236a0.745,0.745,0,1,1-.791.743A0.768,0.768,0,0,1,906.058,251.411Zm6.886,0a0.745,0.745,0,1,1-.791.743A0.768,0.768,0,0,1,912.944,251.411Z" transform="translate(-902 -243)"/>
</svg>
