<svg xmlns="http://www.w3.org/2000/svg" width="123.992" height="69.377" viewBox="0 0 84 47">
  <metadata><?xpacket begin="﻿" id="W5M0MpCehiHzreSzNTczkc9d"?>
<x:xmpmeta xmlns:x="adobe:ns:meta/" x:xmptk="Adobe XMP Core 5.6-c142 79.160924, 2017/07/13-01:06:39        ">
   <rdf:RDF xmlns:rdf="http://www.w3.org/1999/02/22-rdf-syntax-ns#">
      <rdf:Description rdf:about=""/>
   </rdf:RDF>
</x:xmpmeta>
                                                                                                    
                                                                                                    
                                                                                                    
                                                                                                    
                                                                                                    
                                                                                                    
                                                                                                    
                                                                                                    
                                                                                                    
                                                                                                    
                                                                                                    
                                                                                                    
                                                                                                    
                                                                                                    
                                                                                                    
                                                                                                    
                                                                                                    
                                                                                                    
                                                                                                    
                                                                                                    
                           
<?xpacket end="w"?></metadata>
<defs>
    <style>
      .cls-1 {
        fill: #292928;
        fill-rule: evenodd;
      }
    </style>
  </defs>
  <path id="Forma_1" data-name="Forma 1" class="cls-1" d="M798.124,99A7,7,0,1,0,805.135,106,7.006,7.006,0,0,0,798.124,99Zm0,10.5a3.5,3.5,0,1,1,3.506-3.5A3.505,3.505,0,0,1,798.124,109.5ZM851,93.822v7.47a3.378,3.378,0,0,1-3.381,3.374H844a9.281,9.281,0,0,0-18.36,0H807.3a9.274,9.274,0,0,0-18.349,0h-4.531a3.378,3.378,0,0,1-3.382-3.374v-7.47H851ZM834.823,99A7,7,0,1,0,841.834,106,7.015,7.015,0,0,0,834.823,99Zm0,10.5a3.5,3.5,0,1,1,3.506-3.5A3.506,3.506,0,0,1,834.823,109.5Zm14.845-23.2L836.379,73.186a4.525,4.525,0,0,0-3.167-1.3h-6.707V69.373A3.373,3.373,0,0,0,823.124,66H784.418a3.38,3.38,0,0,0-3.381,3.374V69.9L767.316,71.48,791.63,74.64,767,77.081l24.543,3.482L767,82.686l14.038,2.642v6.629H851V89.494A4.516,4.516,0,0,0,849.668,86.3Zm-5.794.439h-12.86a0.529,0.529,0,0,1-.53-0.529V76.3a0.529,0.529,0,0,1,.53-0.529h2.446a0.574,0.574,0,0,1,.372.146l10.4,9.909A0.528,0.528,0,0,1,843.874,86.739Z" transform="translate(-767 -66)"/>
</svg>
