<svg xmlns="http://www.w3.org/2000/svg" width="223.997" height="161.618" viewBox="0 0 79 57">
  <metadata><?xpacket begin="﻿" id="W5M0MpCehiHzreSzNTczkc9d"?>
<x:xmpmeta xmlns:x="adobe:ns:meta/" x:xmptk="Adobe XMP Core 5.6-c142 79.160924, 2017/07/13-01:06:39        ">
   <rdf:RDF xmlns:rdf="http://www.w3.org/1999/02/22-rdf-syntax-ns#">
      <rdf:Description rdf:about=""/>
   </rdf:RDF>
</x:xmpmeta>
                                                                                                    
                                                                                                    
                                                                                                    
                                                                                                    
                                                                                                    
                                                                                                    
                                                                                                    
                                                                                                    
                                                                                                    
                                                                                                    
                                                                                                    
                                                                                                    
                                                                                                    
                                                                                                    
                                                                                                    
                                                                                                    
                                                                                                    
                                                                                                    
                                                                                                    
                                                                                                    
                           
<?xpacket end="w"?></metadata>
<defs>
    <style>
      .cls-1 {
        fill: #292928;
        fill-rule: evenodd;
      }
    </style>
  </defs>
  <path id="Forma_1" data-name="Forma 1" class="cls-1" d="M522.033,102.055a17.307,17.307,0,0,1-9.528-2.857v7.509A4.311,4.311,0,0,0,516.824,111h10.418a4.311,4.311,0,0,0,4.319-4.293V99.2A17.306,17.306,0,0,1,522.033,102.055ZM527.242,54H516.824a4.311,4.311,0,0,0-4.319,4.293v7.34a17.9,17.9,0,0,1,19.057,0v-7.34A4.312,4.312,0,0,0,527.242,54Zm11.99,26.849h-1.34a15.851,15.851,0,1,0,0,3.344h1.34A1.672,1.672,0,1,0,539.232,80.849ZM527.763,76.38L523.5,83.385a1.683,1.683,0,0,1-1.441.807h-6.149a1.672,1.672,0,1,1,0-3.343h5.2l3.77-6.2a1.687,1.687,0,0,1,2.309-.566A1.666,1.666,0,0,1,527.763,76.38Z" transform="translate(-484 -54)"/>
  <path id="Forma_1_copy" data-name="Forma 1 copy" class="cls-1" d="M492.946,91.6A9.818,9.818,0,0,1,487.6,90.02v4.147a2.4,2.4,0,0,0,2.423,2.371h5.844a2.4,2.4,0,0,0,2.423-2.371V90.02A9.819,9.819,0,0,1,492.946,91.6Zm2.922-26.538h-5.844a2.4,2.4,0,0,0-2.423,2.371v4.054a10.177,10.177,0,0,1,10.69,0V67.431A2.4,2.4,0,0,0,495.868,65.06Zm6.726,14.827h-0.752a8.755,8.755,0,1,0,0,1.846h0.752A0.923,0.923,0,1,0,502.594,79.887Zm-6.434-2.468-2.39,3.869a0.947,0.947,0,0,1-.808.446h-3.45a0.923,0.923,0,1,1,0-1.846h2.918l2.115-3.423a0.956,0.956,0,0,1,1.3-.312A0.911,0.911,0,0,1,496.16,77.419Z" transform="translate(-484 -54)"/>
  <path id="Forma_1_copy_2" data-name="Forma 1 copy 2" class="cls-1" d="M552.408,91.6a9.818,9.818,0,0,1-5.345-1.578v4.147a2.4,2.4,0,0,0,2.423,2.371h5.844a2.4,2.4,0,0,0,2.423-2.371V90.02A9.816,9.816,0,0,1,552.408,91.6ZM555.33,65.06h-5.844a2.4,2.4,0,0,0-2.423,2.371v4.054a10.179,10.179,0,0,1,10.691,0V67.431A2.4,2.4,0,0,0,555.33,65.06Zm6.726,14.827H561.3a8.755,8.755,0,1,0,0,1.846h0.752A0.923,0.923,0,1,0,562.056,79.887Zm-6.433-2.468-2.391,3.869a0.947,0.947,0,0,1-.808.446h-3.45a0.923,0.923,0,1,1,0-1.846h2.919l2.115-3.423a0.955,0.955,0,0,1,1.295-.312A0.913,0.913,0,0,1,555.623,77.419Z" transform="translate(-484 -54)"/>
</svg>
