<svg width="16" height="16" viewBox="0 0 16 16" fill="none" xmlns="http://www.w3.org/2000/svg">
<path d="M8.00016 14.6666C4.31826 14.6666 1.3335 11.6818 1.3335 7.99992C1.3335 4.31802 4.31826 1.33325 8.00016 1.33325C11.6821 1.33325 14.6668 4.31802 14.6668 7.99992C14.6628 11.6801 11.6804 14.6625 8.00016 14.6666ZM2.66683 8.11458C2.69837 11.0487 5.09423 13.4063 8.02852 13.3906C10.9628 13.3747 13.3332 10.9916 13.3332 8.05725C13.3332 5.12292 10.9628 2.73977 8.02852 2.72392C5.09423 2.70822 2.69837 5.06576 2.66683 7.99992V8.11458ZM9.3335 11.3333H7.3335V8.66658H6.66683V7.33325H8.66683V9.99992H9.3335V11.3333ZM8.66683 5.99992H7.3335V4.66658H8.66683V5.99992Z" fill="#D39A6E"/>
</svg>
