<svg width="24" height="24" viewBox="0 0 24 24" fill="none" xmlns="http://www.w3.org/2000/svg">
<path fill-rule="evenodd" clip-rule="evenodd" d="M0.968154 0.872389C0.883696 0.89671 0.715376 1.01584 0.594093 1.13712C0.458979 1.27219 0.354505 1.4264 0.324276 1.53532C0.297116 1.63311 0.274902 1.78521 0.274902 1.87338C0.274902 1.96155 0.297116 2.11366 0.324276 2.21144C0.354231 2.31935 0.457559 2.47279 0.58736 2.60199C0.716795 2.73092 0.875452 2.83691 0.989635 2.87085C1.11669 2.90854 1.55941 2.92682 2.34715 2.92682C3.39371 2.92682 3.52612 2.9352 3.61127 3.00697C3.69706 3.07929 3.78719 3.63995 4.5333 8.74361C5.02214 12.0876 5.39877 14.5238 5.45451 14.7026C5.50635 14.8689 5.60418 15.1018 5.67197 15.2201C5.73976 15.3385 5.90817 15.5656 6.04626 15.725C6.18431 15.8843 6.42096 16.098 6.57211 16.1998C6.72325 16.3017 6.93385 16.428 7.04015 16.4805C7.14641 16.5331 7.36283 16.6066 7.52107 16.6439C7.76721 16.7019 8.65503 16.7118 13.6684 16.7124C18.9105 16.713 19.5598 16.7053 19.8287 16.6391C19.9941 16.5984 20.2854 16.4846 20.4761 16.3863C20.6668 16.288 20.9397 16.1035 21.0824 15.9762C21.2252 15.849 21.4447 15.5884 21.5703 15.3972C21.6958 15.2059 21.8403 14.924 21.8913 14.7706C21.9424 14.6172 22.3757 12.534 22.8545 10.1412C23.3331 7.74848 23.7248 5.71251 23.7248 5.61688C23.7248 5.5212 23.6928 5.36634 23.6537 5.27268C23.6147 5.17902 23.5168 5.03364 23.4362 4.94964C23.3556 4.8656 23.2278 4.76254 23.1523 4.72063C23.0259 4.65051 22.3343 4.64254 14.544 4.62147L6.07305 4.59857L5.92731 3.63674C5.84721 3.10773 5.76591 2.61308 5.74667 2.5375C5.72744 2.46193 5.6608 2.29705 5.5986 2.17109C5.53644 2.04514 5.40312 1.83418 5.3024 1.70227C5.20168 1.5704 5.02031 1.39141 4.89939 1.30453C4.77847 1.21769 4.59591 1.10392 4.49368 1.05179C4.39145 0.999626 4.17834 0.926435 4.02009 0.889153C3.79915 0.837031 3.42971 0.822099 2.42707 0.824756C1.70913 0.826634 1.05261 0.848115 0.968154 0.872389ZM8.30098 17.7237C8.16866 17.7468 7.94336 17.807 7.80028 17.8572C7.65719 17.9075 7.4286 18.0159 7.29225 18.098C7.1559 18.1802 6.90719 18.3917 6.73951 18.568C6.55905 18.7579 6.3748 19.0107 6.28782 19.188C6.20707 19.3526 6.10915 19.6094 6.07026 19.7586C6.03142 19.9079 5.99959 20.2134 5.99959 20.4375C5.99959 20.6615 6.03225 20.9715 6.07219 21.1263C6.11212 21.2811 6.21522 21.5417 6.30133 21.7054C6.38744 21.8692 6.54211 22.1013 6.64502 22.2213C6.74794 22.3413 6.96165 22.5318 7.11994 22.6448C7.27823 22.7578 7.54709 22.9026 7.71738 22.9667C7.88767 23.0308 8.17663 23.1023 8.35951 23.1254C8.5724 23.1524 8.79531 23.1509 8.97912 23.1214C9.13704 23.0959 9.38002 23.0351 9.51912 22.9862C9.65822 22.9374 9.88576 22.8301 10.0248 22.748C10.1639 22.6658 10.4035 22.4723 10.5574 22.3181C10.7181 22.157 10.9073 21.9035 11.002 21.7227C11.0927 21.5494 11.2037 21.2841 11.2487 21.1329C11.3025 20.9521 11.3303 20.7092 11.3299 20.423C11.3294 20.1029 11.3017 19.8971 11.225 19.6444C11.1677 19.4554 11.0515 19.1863 10.9667 19.0462C10.882 18.9061 10.7285 18.6958 10.6255 18.5789C10.5227 18.4621 10.2994 18.274 10.1295 18.161C9.95959 18.048 9.66673 17.9045 9.47877 17.842C9.2908 17.7795 9.00303 17.7179 8.83928 17.705C8.67554 17.6921 8.4333 17.7005 8.30098 17.7237ZM17.6021 17.7224C17.4717 17.7457 17.23 17.8156 17.0651 17.8777C16.9002 17.9398 16.6435 18.0732 16.4947 18.1743C16.3459 18.2753 16.1196 18.4753 15.9919 18.6187C15.8641 18.762 15.6859 19.0283 15.5959 19.2105C15.5059 19.3927 15.4022 19.6833 15.3655 19.8564C15.3289 20.0295 15.2989 20.2845 15.2989 20.423C15.2989 20.5616 15.3292 20.8192 15.3662 20.9955C15.4032 21.1719 15.5092 21.4707 15.6017 21.6596C15.7238 21.9091 15.8651 22.0986 16.1176 22.3519C16.3613 22.5964 16.5645 22.7507 16.7971 22.8677C16.9797 22.9595 17.2579 23.0651 17.4154 23.1022C17.573 23.1394 17.8565 23.1697 18.0454 23.1697C18.2343 23.1697 18.519 23.1391 18.678 23.1016C18.837 23.0641 19.0934 22.9708 19.2478 22.8941C19.4023 22.8175 19.6337 22.6689 19.762 22.5639C19.8904 22.459 20.0798 22.2692 20.1828 22.1423C20.2859 22.0154 20.4255 21.8014 20.4932 21.6667C20.5609 21.532 20.6561 21.2659 20.7049 21.0754C20.7536 20.8849 20.7931 20.6138 20.7927 20.4729C20.7922 20.3321 20.7616 20.0726 20.7246 19.8963C20.6875 19.7199 20.5857 19.4314 20.4983 19.2551C20.4109 19.0787 20.2509 18.8279 20.1427 18.6977C20.0346 18.5675 19.8431 18.3796 19.7171 18.2801C19.5912 18.1805 19.3851 18.0472 19.2591 17.9837C19.1332 17.9203 18.919 17.8354 18.7831 17.795C18.6473 17.7547 18.3793 17.7124 18.1877 17.7009C17.9961 17.6894 17.7326 17.6991 17.6021 17.7224Z" fill="#171715"/>
</svg>
