<svg xmlns="http://www.w3.org/2000/svg" width="123.999" height="100.93" viewBox="0 0 43 35">
  <metadata><?xpacket begin="﻿" id="W5M0MpCehiHzreSzNTczkc9d"?>
<x:xmpmeta xmlns:x="adobe:ns:meta/" x:xmptk="Adobe XMP Core 5.6-c142 79.160924, 2017/07/13-01:06:39        ">
   <rdf:RDF xmlns:rdf="http://www.w3.org/1999/02/22-rdf-syntax-ns#">
      <rdf:Description rdf:about=""/>
   </rdf:RDF>
</x:xmpmeta>
                                                                                                    
                                                                                                    
                                                                                                    
                                                                                                    
                                                                                                    
                                                                                                    
                                                                                                    
                                                                                                    
                                                                                                    
                                                                                                    
                                                                                                    
                                                                                                    
                                                                                                    
                                                                                                    
                                                                                                    
                                                                                                    
                                                                                                    
                                                                                                    
                                                                                                    
                                                                                                    
                           
<?xpacket end="w"?></metadata>
<defs>
    <style>
      .cls-1 {
        fill: #efece4;
        fill-rule: evenodd;
      }
    </style>
  </defs>
  <path id="Forma_1" data-name="Forma 1" class="cls-1" d="M1220.64,1683.31h-40.28a1.345,1.345,0,1,0,0,2.69h40.28A1.345,1.345,0,1,0,1220.64,1683.31Zm-36.88-17.79v13.38h-0.87a1.327,1.327,0,0,0-1.33,1.32v0.86h37.88v-0.86a1.327,1.327,0,0,0-1.33-1.32h-0.87v-13.38h-7.07v13.38h-6.14v-13.38h-7.07v13.38h-6.13v-13.38h-7.07Zm-2.07-2.22h37.62a1.323,1.323,0,0,0,.55-2.53l-18.75-9.62a1.315,1.315,0,0,0-1.22,0l-18.81,9.65a1.324,1.324,0,0,0-.69,1.49A1.339,1.339,0,0,0,1181.69,1663.3Z" transform="translate(-1179 -1651)"/>
</svg>
