<svg xmlns="http://www.w3.org/2000/svg" width="128" height="128" viewBox="0 0 17 17">
  <metadata><?xpacket begin="﻿" id="W5M0MpCehiHzreSzNTczkc9d"?>
<x:xmpmeta xmlns:x="adobe:ns:meta/" x:xmptk="Adobe XMP Core 5.6-c142 79.160924, 2017/07/13-01:06:39        ">
   <rdf:RDF xmlns:rdf="http://www.w3.org/1999/02/22-rdf-syntax-ns#">
      <rdf:Description rdf:about=""/>
   </rdf:RDF>
</x:xmpmeta>
                                                                                                    
                                                                                                    
                                                                                                    
                                                                                                    
                                                                                                    
                                                                                                    
                                                                                                    
                                                                                                    
                                                                                                    
                                                                                                    
                                                                                                    
                                                                                                    
                                                                                                    
                                                                                                    
                                                                                                    
                                                                                                    
                                                                                                    
                                                                                                    
                                                                                                    
                                                                                                    
                           
<?xpacket end="w"?></metadata>
<defs>
    <style>
      .cls-1 {
        fill: #d39a6e;
        fill-rule: evenodd;
      }
    </style>
  </defs>
  <path id="Forma_1_копия_5" data-name="Forma 1 копия 5" class="cls-1" d="M1284.62,406.444l-2.63-2.637a1.365,1.365,0,0,0-1.93.037l-1.32,1.328c-0.08-.046-0.17-0.094-0.26-0.146a12.967,12.967,0,0,1-3.18-2.311,13.392,13.392,0,0,1-2.31-3.2c-0.05-.089-0.09-0.175-0.14-0.256l0.89-.891,0.43-.439a1.372,1.372,0,0,0,.04-1.938l-2.62-2.637a1.363,1.363,0,0,0-1.93.036l-0.74.748,0.02,0.02a4.361,4.361,0,0,0-.88,2.175c-0.35,2.887.96,5.525,4.53,9.1,4.92,4.948,8.89,4.574,9.06,4.556a4.456,4.456,0,0,0,2.17-.886l0.01,0.015,0.75-.738A1.383,1.383,0,0,0,1284.62,406.444Z" transform="translate(-1268 -393)"/>
</svg>
