<svg xmlns="http://www.w3.org/2000/svg" width="123.998" height="123.998" viewBox="0 0 46 46">
  <metadata><?xpacket begin="﻿" id="W5M0MpCehiHzreSzNTczkc9d"?>
<x:xmpmeta xmlns:x="adobe:ns:meta/" x:xmptk="Adobe XMP Core 5.6-c142 79.160924, 2017/07/13-01:06:39        ">
   <rdf:RDF xmlns:rdf="http://www.w3.org/1999/02/22-rdf-syntax-ns#">
      <rdf:Description rdf:about=""/>
   </rdf:RDF>
</x:xmpmeta>
                                                                                                    
                                                                                                    
                                                                                                    
                                                                                                    
                                                                                                    
                                                                                                    
                                                                                                    
                                                                                                    
                                                                                                    
                                                                                                    
                                                                                                    
                                                                                                    
                                                                                                    
                                                                                                    
                                                                                                    
                                                                                                    
                                                                                                    
                                                                                                    
                                                                                                    
                                                                                                    
                           
<?xpacket end="w"?></metadata>
<defs>
    <style>
      .cls-1 {
        fill: #efece4;
        fill-rule: evenodd;
      }
    </style>
  </defs>
  <path id="Forma_1" data-name="Forma 1" class="cls-1" d="M797.139,1780.65a3.121,3.121,0,0,0-4.445,0l-6.371,6.37a2.717,2.717,0,0,0-.593.89,5.785,5.785,0,0,1-5.342,3.58H771.4v-2.7h8.991a3.08,3.08,0,1,0,0-6.16h-6.073a11.387,11.387,0,0,1-5.476-1.4,8.222,8.222,0,0,0-9.767,1.39L752,1789.7l12.3,12.3a11.582,11.582,0,0,1,8.187-3.39h7.185a9.233,9.233,0,0,0,6.558-2.73l10.862-10.92A3.074,3.074,0,0,0,797.139,1780.65ZM775,1756l-13.019,7.52v14.39a10.289,10.289,0,0,1,1.363-.28,10.842,10.842,0,0,1,6.793,1.23,8.71,8.71,0,0,0,3.515,1.05v-8.1l-8.976-5.18v-1.56l1.348-.78,8.976,5.19,8.977-5.19,1.347,0.78v1.56l-8.976,5.18v8.12h4.042a5.743,5.743,0,0,1,3.36,1.08l4.27-2.46v-15.03Z" transform="translate(-752 -1756)"/>
</svg>
