<svg xmlns="http://www.w3.org/2000/svg" width="223.998" height="223.998" viewBox="0 0 60 60">
  <metadata><?xpacket begin="﻿" id="W5M0MpCehiHzreSzNTczkc9d"?>
<x:xmpmeta xmlns:x="adobe:ns:meta/" x:xmptk="Adobe XMP Core 5.6-c142 79.160924, 2017/07/13-01:06:39        ">
   <rdf:RDF xmlns:rdf="http://www.w3.org/1999/02/22-rdf-syntax-ns#">
      <rdf:Description rdf:about=""/>
   </rdf:RDF>
</x:xmpmeta>
                                                                                                    
                                                                                                    
                                                                                                    
                                                                                                    
                                                                                                    
                                                                                                    
                                                                                                    
                                                                                                    
                                                                                                    
                                                                                                    
                                                                                                    
                                                                                                    
                                                                                                    
                                                                                                    
                                                                                                    
                                                                                                    
                                                                                                    
                                                                                                    
                                                                                                    
                                                                                                    
                           
<?xpacket end="w"?></metadata>
<defs>
    <style>
      .cls-1 {
        fill: #292928;
        fill-rule: evenodd;
      }
    </style>
  </defs>
  <path id="Forma_1" data-name="Forma 1" class="cls-1" d="M1134.99,83.52a1.772,1.772,0,0,0-.69-1.23l-4.75-3.619,1.73-5.735a1.794,1.794,0,0,0-1.29-2.245l-5.81-1.363-0.74-5.946a1.776,1.776,0,0,0-2.09-1.524l-5.85,1.129-3.09-5.129a1.758,1.758,0,0,0-2.52-.539L1105,60.745l-4.89-3.425a1.764,1.764,0,0,0-1.38-.28,1.745,1.745,0,0,0-1.14.819l-3.09,5.129-5.85-1.129a1.776,1.776,0,0,0-2.09,1.523l-0.74,5.947-5.81,1.363a1.794,1.794,0,0,0-1.29,2.245l1.73,5.735-4.75,3.618a1.783,1.783,0,0,0-.27,2.578l3.9,4.533-2.88,5.249a1.812,1.812,0,0,0-.13,1.406,1.778,1.778,0,0,0,.93,1.059l5.4,2.546-0.51,5.972a1.776,1.776,0,0,0,1.73,1.926l5.96,0.119,1.95,5.662a1.788,1.788,0,0,0,.95,1.04,1.768,1.768,0,0,0,1.41.014l5.49-2.328,4.08,4.373a1.762,1.762,0,0,0,2.58,0l4.08-4.373,5.49,2.328a1.768,1.768,0,0,0,1.41-.014,1.788,1.788,0,0,0,.95-1.04l1.95-5.662,5.96-.119a1.776,1.776,0,0,0,1.73-1.926l-0.51-5.972,5.4-2.546a1.778,1.778,0,0,0,.93-1.059,1.813,1.813,0,0,0-.13-1.406l-2.88-5.249,3.9-4.533A1.783,1.783,0,0,0,1134.99,83.52ZM1105,104A16.995,16.995,0,1,1,1121.91,87,16.974,16.974,0,0,1,1105,104Zm0-30.437A13.443,13.443,0,1,0,1118.37,87,13.423,13.423,0,0,0,1105,73.558Zm6.93,10.894-7.57,7.609a1.762,1.762,0,0,1-2.5,0l-3.79-3.8a1.783,1.783,0,0,1,0-2.512,1.762,1.762,0,0,1,2.5,0l2.54,2.549,6.32-6.353a1.762,1.762,0,0,1,2.5,0A1.783,1.783,0,0,1,1111.93,84.452Z" transform="translate(-1075 -57)"/>
</svg>
