<svg width="25" height="24" viewBox="0 0 25 24" fill="none" xmlns="http://www.w3.org/2000/svg">
<path fill-rule="evenodd" clip-rule="evenodd" d="M11.6021 0.850401C11.4094 0.881671 11.0744 0.95897 10.8576 1.02217C10.6408 1.08536 10.2466 1.24281 9.98165 1.37205C9.71669 1.50125 9.32932 1.72855 9.12085 1.8771C8.91234 2.0257 8.58172 2.30849 8.38609 2.50552C8.1905 2.70256 7.91069 3.03129 7.76432 3.23604C7.61791 3.44078 7.39254 3.82509 7.26343 4.09005C7.13432 4.35501 6.97767 4.74917 6.91535 4.96596C6.85298 5.18275 6.77354 5.54735 6.73881 5.77618C6.70403 6.00501 6.67583 6.37947 6.67613 6.6083C6.6764 6.83713 6.70386 7.20173 6.7371 7.41852C6.77034 7.63531 6.82889 7.93294 6.86721 8.07987C6.90554 8.22685 6.98774 8.48306 7.04989 8.64922C7.11203 8.81542 7.25121 9.11805 7.35917 9.32183C7.46713 9.52557 7.66627 9.84615 7.80168 10.0342C7.93705 10.2223 8.23662 10.5589 8.46733 10.7822C8.698 11.0055 9.05428 11.2986 9.25902 11.4336C9.46377 11.5685 9.75356 11.7401 9.90304 11.8148C10.0525 11.8895 10.3076 12.0006 10.4699 12.0617C10.6323 12.1228 10.914 12.2099 11.096 12.2553C11.278 12.3007 11.5926 12.3592 11.7952 12.3855C11.9977 12.4117 12.3149 12.4331 12.4999 12.4331C12.6849 12.4331 13.0021 12.4117 13.2046 12.3855C13.4072 12.3592 13.7218 12.3007 13.9038 12.2553C14.0858 12.2099 14.3715 12.1216 14.5388 12.0591C14.7061 11.9965 15.0097 11.857 15.2134 11.749C15.4172 11.6411 15.7378 11.4419 15.9258 11.3065C16.1139 11.1711 16.4505 10.8716 16.6738 10.6409C16.8971 10.4102 17.1922 10.0519 17.3296 9.84479C17.4671 9.63764 17.6671 9.2829 17.7742 9.05647C17.8813 8.83005 18.02 8.46799 18.0825 8.25195C18.145 8.03586 18.225 7.68112 18.2602 7.46363C18.2955 7.24609 18.3244 6.86122 18.3244 6.6083C18.3244 6.35538 18.2955 5.9705 18.2602 5.75297C18.225 5.53548 18.1458 5.18074 18.0843 4.96465C18.0228 4.74861 17.8671 4.35501 17.7383 4.09005C17.6095 3.82509 17.3838 3.44078 17.2367 3.23604C17.0897 3.03129 16.8093 2.70256 16.6137 2.50552C16.4181 2.30849 16.0875 2.02561 15.879 1.87693C15.6705 1.72828 15.3239 1.51798 15.1088 1.40958C14.8936 1.30123 14.5152 1.14628 14.2678 1.06526C14.0205 0.98424 13.6301 0.887671 13.4003 0.850708C13.1706 0.813744 12.7508 0.785759 12.4675 0.788518C12.1842 0.791277 11.7948 0.819131 11.6021 0.850401ZM7.74808 12.915C7.53129 12.9579 7.2061 13.0371 7.02545 13.0911C6.84479 13.145 6.51777 13.2644 6.29875 13.3566C6.07972 13.4487 5.73483 13.6202 5.53232 13.7377C5.32981 13.8552 5.03349 14.0432 4.87377 14.1554C4.71409 14.2677 4.39215 14.5406 4.15837 14.7618C3.92463 14.983 3.60956 15.3231 3.45829 15.5176C3.30698 15.712 3.08879 16.0189 2.97339 16.1995C2.85799 16.3802 2.69765 16.6654 2.61716 16.8333C2.53495 17.0047 2.4707 17.2077 2.4707 17.296C2.4707 17.4027 2.52935 17.5509 2.65316 17.757C2.75349 17.9241 2.94418 18.2087 3.07692 18.3893C3.20967 18.57 3.45054 18.8755 3.61219 19.0682C3.77389 19.2609 4.13008 19.6362 4.40375 19.9023C4.67743 20.1685 5.05902 20.5144 5.25172 20.6712C5.44443 20.8279 5.75975 21.0651 5.95245 21.1981C6.14516 21.3311 6.44704 21.5238 6.62336 21.6263C6.79964 21.7289 7.15438 21.9165 7.41168 22.0433C7.66894 22.1701 8.09704 22.3556 8.36297 22.4556C8.62885 22.5556 9.01315 22.6857 9.21698 22.7448C9.42076 22.8039 9.82399 22.9011 10.113 22.9609C10.4021 23.0207 10.8258 23.0953 11.0546 23.1268C11.2974 23.1602 11.8902 23.184 12.478 23.184C13.0827 23.184 13.6516 23.1606 13.9014 23.1254C14.1302 23.0932 14.5539 23.0191 14.843 22.9608C15.132 22.9025 15.536 22.8045 15.7408 22.7431C15.9455 22.6818 16.3003 22.5626 16.5291 22.4784C16.7579 22.3942 17.1521 22.2269 17.405 22.1066C17.6579 21.9863 18.0225 21.798 18.2152 21.6881C18.4079 21.5783 18.743 21.369 18.9598 21.2229C19.1765 21.077 19.551 20.7963 19.7919 20.5992C20.0327 20.4022 20.486 19.9765 20.7992 19.6533C21.1123 19.33 21.5372 18.8395 21.7434 18.5632C21.9495 18.2869 22.2107 17.9114 22.3237 17.7287C22.456 17.5148 22.5291 17.3469 22.5291 17.2569C22.5291 17.1801 22.448 16.956 22.3488 16.7588C22.2497 16.5616 22.0833 16.2714 21.9789 16.1138C21.8746 15.9562 21.6603 15.6666 21.5026 15.4702C21.3449 15.2738 21.0432 14.9513 20.8323 14.7535C20.6214 14.5557 20.2911 14.2817 20.0984 14.1446C19.9057 14.0075 19.5899 13.8065 19.3966 13.6979C19.2032 13.5894 18.8879 13.4349 18.6958 13.3547C18.5038 13.2744 18.1988 13.1624 18.0181 13.1056C17.8375 13.0488 17.4827 12.9645 17.2298 12.9183C16.884 12.8551 16.7176 12.8441 16.5588 12.8738C16.4235 12.8992 16.214 13.0005 15.9753 13.1562C15.7704 13.2897 15.4446 13.4785 15.2514 13.5757C15.0581 13.6728 14.7 13.8192 14.4554 13.9011C14.2109 13.9829 13.8236 14.0842 13.5948 14.1261C13.3147 14.1775 12.9569 14.2024 12.4999 14.2024C12.0429 14.2024 11.6851 14.1775 11.405 14.1261C11.1762 14.0842 10.7887 13.9828 10.544 13.9009C10.2993 13.819 9.95437 13.6795 9.77756 13.5907C9.60076 13.502 9.27873 13.3155 9.06194 13.1762C8.84516 13.0368 8.58895 12.9015 8.4926 12.8753C8.39625 12.8492 8.278 12.8298 8.22983 12.8323C8.18165 12.8349 7.96486 12.872 7.74808 12.915Z" fill="#171715"/>
</svg>
