<svg xmlns="http://www.w3.org/2000/svg" width="123.996" height="109.408" viewBox="0 0 51 45">
  <metadata><?xpacket begin="﻿" id="W5M0MpCehiHzreSzNTczkc9d"?>
<x:xmpmeta xmlns:x="adobe:ns:meta/" x:xmptk="Adobe XMP Core 5.6-c142 79.160924, 2017/07/13-01:06:39        ">
   <rdf:RDF xmlns:rdf="http://www.w3.org/1999/02/22-rdf-syntax-ns#">
      <rdf:Description rdf:about=""/>
   </rdf:RDF>
</x:xmpmeta>
                                                                                                    
                                                                                                    
                                                                                                    
                                                                                                    
                                                                                                    
                                                                                                    
                                                                                                    
                                                                                                    
                                                                                                    
                                                                                                    
                                                                                                    
                                                                                                    
                                                                                                    
                                                                                                    
                                                                                                    
                                                                                                    
                                                                                                    
                                                                                                    
                                                                                                    
                                                                                                    
                           
<?xpacket end="w"?></metadata>
<defs>
    <style>
      .cls-1 {
        fill: #efece4;
        fill-rule: evenodd;
      }
    </style>
  </defs>
  <path id="Forma_1" data-name="Forma 1" class="cls-1" d="M796.05,1653.6l-31.234-6.54a2.456,2.456,0,0,0-2.911,1.87l-0.594,3.78,36.04,7.54,0.593-3.77A2.432,2.432,0,0,0,796.05,1653.6Zm-13.135,7.45a2.485,2.485,0,0,0-3.051-1.7l-5.929,1.63-13.979-2.93-1.537,7.19-9.605,2.64a2.458,2.458,0,0,0-1.726,3.02l5.413,19.3a2.492,2.492,0,0,0,3.051,1.71l31.051-8.53a2.458,2.458,0,0,0,1.726-3.02l-0.93-3.31,3.483,0.73a2.47,2.47,0,0,0,2.911-1.88l2.2-10.3-12.544-2.63Zm3.586,9.82,0.768-3.59a1.021,1.021,0,0,1,1.2-.78l3.629,0.76a1.011,1.011,0,0,1,.78,1.19l-0.768,3.59a1.007,1.007,0,0,1-1.2.77l-3.629-.76A1,1,0,0,1,786.5,1670.87Zm-37.147-1.07,8.593-2.36,20.275-5.57,2.181-.6a0.483,0.483,0,0,1,.119-0.01,0.463,0.463,0,0,1,.445.33l0.256,0.91,0.8,2.87-31.932,8.77-1.059-3.78A0.462,0.462,0,0,1,749.354,1669.8Zm37.027,11.1a0.443,0.443,0,0,1-.045.34,0.471,0.471,0,0,1-.274.22l-31.049,8.52a0.252,0.252,0,0,1-.119.02,0.463,0.463,0,0,1-.445-0.33l-3.158-11.26,31.933-8.77,1.947,6.94Zm-26.351.77a1.015,1.015,0,0,0-1.244-.7l-3.626,1a1,1,0,0,0-.7,1.23l1.007,3.59a1.009,1.009,0,0,0,1.244.69l3.626-.99a1,1,0,0,0,.7-1.23Z" transform="translate(-747 -1647)"/>
</svg>
