<svg id="icon" xmlns="http://www.w3.org/2000/svg" width="224" height="259.84" viewBox="0 0 50 58">
  <metadata><?xpacket begin="﻿" id="W5M0MpCehiHzreSzNTczkc9d"?>
<x:xmpmeta xmlns:x="adobe:ns:meta/" x:xmptk="Adobe XMP Core 5.6-c142 79.160924, 2017/07/13-01:06:39        ">
   <rdf:RDF xmlns:rdf="http://www.w3.org/1999/02/22-rdf-syntax-ns#">
      <rdf:Description rdf:about=""/>
   </rdf:RDF>
</x:xmpmeta>
                                                                                                    
                                                                                                    
                                                                                                    
                                                                                                    
                                                                                                    
                                                                                                    
                                                                                                    
                                                                                                    
                                                                                                    
                                                                                                    
                                                                                                    
                                                                                                    
                                                                                                    
                                                                                                    
                                                                                                    
                                                                                                    
                                                                                                    
                                                                                                    
                                                                                                    
                                                                                                    
                           
<?xpacket end="w"?></metadata>
<defs>
    <style>
      .cls-1, .cls-2 {
        fill: #292928;
      }

      .cls-1 {
        fill-rule: evenodd;
      }
    </style>
  </defs>
  <path class="cls-1" d="M1374,80.153a21.942,21.942,0,0,0,7.27,16.32v13.549a1.986,1.986,0,0,0,1.6,1.884l23.31,4.07a1.3,1.3,0,0,0,1.6-1.215h0v-0.048l0.01-6.392,6.47,0.948a4.688,4.688,0,0,0,4.71-4.655V96.436h2.14c2.49,0,3.58-1.774,2.43-3.949l-4.57-8.616V80.189h0a22.108,22.108,0,0,0-12.96-20.063A22.47,22.47,0,0,0,1374,80.153Zm5.88,0.049a16.681,16.681,0,1,1,16.68,16.478A16.58,16.58,0,0,1,1379.88,80.2Z" transform="translate(-1374 -58)"/>
  <rect class="cls-2" x="21" y="12" width="3" height="12" rx="1.5" ry="1.5"/>
  <rect id="Rectangle_1_copy" data-name="Rectangle 1 copy" class="cls-2" x="21" y="21" width="9" height="3" rx="1.5" ry="1.5"/>
</svg>
