<svg width="110" height="24" viewBox="0 0 110 24" fill="none" xmlns="http://www.w3.org/2000/svg">
<path fill-rule="evenodd" clip-rule="evenodd" d="M4.03447 0.361048C3.91378 0.385875 3.69939 0.465384 3.55805 0.537747C3.41671 0.610057 3.21296 0.760603 3.10529 0.872297C2.99768 0.983991 2.8449 1.21702 2.76582 1.39012C2.65423 1.63452 2.62136 1.78914 2.61876 2.08203C2.61596 2.40409 2.64047 2.50997 2.78673 2.80704C2.88106 2.99861 3.05601 3.24344 3.17612 3.35196C3.29607 3.46037 3.52809 3.61155 3.69171 3.68804C3.98 3.82271 4.02579 3.82764 5.16898 3.8459C6.34865 3.86475 6.34871 3.86475 6.31276 3.97872C6.29297 4.04139 4.87239 7.93977 3.1559 12.6418C0.21205 20.7059 0.0334987 21.2149 0.00867197 21.6143C-0.0130845 21.9635 0.00247842 22.0912 0.0970742 22.342C0.16732 22.5283 0.316175 22.7605 0.481122 22.9409C0.629235 23.103 0.871733 23.2996 1.01995 23.3778L1.2895 23.52L6.68892 23.5351C11.2892 23.5479 12.1636 23.5383 12.5968 23.4705C12.8766 23.4266 13.3053 23.328 13.5497 23.2513C13.7941 23.1747 14.2242 22.9942 14.5056 22.8502C14.787 22.7062 15.2065 22.4475 15.4379 22.2753C15.6693 22.103 16.0276 21.7931 16.2341 21.5865C16.4408 21.38 16.744 21.0325 16.9082 20.8144C17.0723 20.5963 17.3345 20.2014 17.4909 19.9369C17.6472 19.6723 17.8462 19.2851 17.9331 19.0764C18.0199 18.8677 18.1527 18.4842 18.2281 18.2241C18.3034 17.9641 18.4023 17.5247 18.4479 17.2478C18.5098 16.8711 18.5233 16.5309 18.5017 15.8973C18.4823 15.3298 18.4375 14.8968 18.3659 14.5851C18.3072 14.3293 18.1718 13.9005 18.0651 13.6323C17.9585 13.3641 17.7781 12.9842 17.6644 12.788C17.5506 12.5919 17.3181 12.2465 17.1477 12.0205C16.9774 11.7945 16.7043 11.4831 16.5409 11.3286C16.3775 11.1741 16.2438 11.0366 16.2438 11.0229C16.2438 11.0093 16.3752 10.8261 16.5359 10.6157C16.6965 10.4053 16.933 10.0303 17.0614 9.7823C17.1897 9.5343 17.3434 9.20081 17.4028 9.04121C17.4621 8.88161 17.5611 8.54853 17.6228 8.30106C17.7021 7.98302 17.7431 7.61062 17.7628 7.03061C17.784 6.40422 17.77 6.09163 17.7034 5.70928C17.6555 5.43386 17.5443 4.99317 17.4563 4.72997C17.3683 4.46683 17.2138 4.07955 17.113 3.86945C17.0121 3.65935 16.7889 3.277 16.6168 3.01979C16.4448 2.76258 16.1153 2.37175 15.8845 2.15133C15.6538 1.93091 15.2889 1.62621 15.0736 1.47423C14.8583 1.32231 14.5035 1.1077 14.2852 0.997385C14.0668 0.887068 13.6971 0.736521 13.4637 0.662888C13.2302 0.589254 12.8609 0.487247 12.6432 0.43627C12.2874 0.353003 11.8409 0.342148 8.25052 0.329708C6.05237 0.322085 4.15516 0.336168 4.03447 0.361048ZM21.6608 0.564532C21.5103 0.616567 21.3004 0.725299 21.1944 0.806237C21.0883 0.887123 20.9211 1.06414 20.8228 1.1996C20.7245 1.33506 20.6041 1.58804 20.5554 1.76172C20.4968 1.97055 20.4774 2.16811 20.4982 2.34491C20.5155 2.49197 20.5698 2.73102 20.6191 2.87607C20.6825 3.06314 20.8021 3.2329 21.0303 3.45978C21.2727 3.7008 21.4221 3.80201 21.6361 3.87004C21.9026 3.95478 24.2062 3.96035 59.1541 3.96035C80.8471 3.96035 96.3882 3.97999 96.3882 4.00741C96.3882 4.03329 94.9708 7.92659 93.2385 12.6591C90.3945 20.4287 90.0888 21.2943 90.0888 21.578C90.0888 21.7508 90.1236 21.9907 90.1661 22.1111C90.2086 22.2316 90.3177 22.4383 90.4087 22.5704C90.4996 22.7026 90.6852 22.8929 90.8211 22.9934C90.957 23.0939 91.2312 23.2267 91.4305 23.2886C91.705 23.3738 91.8628 23.3929 92.0811 23.3672C92.2396 23.3486 92.4695 23.2852 92.5921 23.2265C92.7147 23.1678 94.1252 22.1451 95.7265 20.954C97.6422 19.5289 98.656 18.806 98.6909 18.8401C98.72 18.8686 99.5775 19.848 100.597 21.0165C102.294 22.9637 102.478 23.157 102.793 23.329C103.104 23.4992 103.176 23.5169 103.56 23.5184C103.916 23.5198 104.035 23.4963 104.302 23.3714C104.493 23.2822 104.719 23.1168 104.868 22.9579C105.016 22.8011 105.162 22.5746 105.226 22.4031C105.296 22.2164 105.334 21.9868 105.334 21.7579C105.334 21.4796 105.302 21.3369 105.189 21.0992C105.086 20.8856 104.522 20.1924 103.283 18.7594C102.315 17.6394 101.524 16.704 101.525 16.6808C101.526 16.6575 103.315 15.3163 105.5 13.7005C107.686 12.0846 109.543 10.6792 109.628 10.5773C109.713 10.4754 109.833 10.261 109.893 10.1009C109.98 9.87028 109.998 9.7256 109.98 9.40534C109.964 9.10372 109.921 8.92506 109.812 8.70204C109.709 8.49231 109.584 8.34171 109.392 8.19757C109.242 8.08461 109.012 7.94851 108.881 7.89515C108.719 7.82903 108.516 7.79944 108.246 7.80209C108.014 7.80436 107.772 7.83973 107.663 7.88694C107.562 7.93146 104.793 9.93507 101.51 12.3394C98.2278 14.7437 95.5189 16.7254 95.4903 16.743C95.4618 16.7606 95.4994 16.6133 95.574 16.4156C95.6485 16.2179 96.827 13.0374 98.1927 9.34791C100.592 2.86749 100.676 2.62722 100.676 2.2698C100.676 2.02624 100.639 1.80058 100.567 1.60927C100.507 1.44946 100.355 1.20352 100.228 1.06271C100.102 0.9219 99.8708 0.736152 99.715 0.649867L99.432 0.49307L60.6832 0.481477C23.5927 0.470414 21.9227 0.473959 21.6608 0.564532ZM12.112 3.93647C12.2997 3.98072 12.607 4.09258 12.7948 4.18501C13.0113 4.29162 13.2612 4.47933 13.4777 4.69806C13.6656 4.88773 13.8891 5.18114 13.9743 5.35001C14.0595 5.51887 14.1673 5.84072 14.2137 6.06522C14.2718 6.34625 14.29 6.63031 14.2722 6.97699C14.2556 7.2982 14.2053 7.59559 14.1331 7.79817C14.0709 7.97286 13.9134 8.27226 13.783 8.46346C13.6526 8.65472 13.4526 8.88621 13.3385 8.97789C13.2244 9.06958 13.0086 9.21684 12.8588 9.30514L12.5866 9.46564H10.3127C9.06202 9.46564 8.03873 9.44775 8.03862 9.42594C8.03851 9.40413 8.49704 8.14199 9.05763 6.62125L10.0768 3.85628L10.9238 3.85617C11.4968 3.85606 11.8811 3.88205 12.112 3.93647ZM60.0089 7.69256C59.9001 7.7328 59.7077 7.83682 59.5813 7.92379C59.4549 8.01071 59.2864 8.16729 59.2067 8.27173C59.1271 8.37618 59.0112 8.57436 58.9492 8.71221C58.8665 8.89632 58.838 9.061 58.8416 9.3333C58.8448 9.57051 58.8867 9.81014 58.958 9.99923C59.0247 10.1759 59.1664 10.3957 59.3107 10.5463C59.4434 10.6847 59.6873 10.8615 59.8528 10.9391L60.1538 11.0802L62.1707 11.1066L64.1876 11.1331L62.148 16.3208C60.2079 21.2552 60.1083 21.5252 60.1078 21.8526C60.1075 22.1177 60.1417 22.2727 60.2572 22.5281C60.3442 22.7205 60.4956 22.9396 60.6181 23.0503C60.7342 23.1552 60.9599 23.3009 61.1196 23.374C61.3444 23.4769 61.5013 23.5078 61.8141 23.5112C62.149 23.5147 62.2737 23.4902 62.5417 23.3683C62.7263 23.2843 62.9715 23.1131 63.1127 22.9698C63.2882 22.7916 63.4188 22.5811 63.5618 22.2459C63.6727 21.9858 64.7133 19.3732 65.8744 16.4399L67.9854 11.1066H69.6837C71.2875 11.1066 71.4011 11.1002 71.7232 10.9916C71.9892 10.9018 72.1294 10.8114 72.36 10.5809C72.568 10.3731 72.6898 10.1946 72.7703 9.97938C72.8404 9.7922 72.8848 9.55166 72.8848 9.35977C72.8848 9.17301 72.8408 8.92861 72.7761 8.75557C72.7161 8.59517 72.5585 8.34394 72.4245 8.19482C72.2909 8.04623 72.0599 7.86047 71.9112 7.78202L71.6408 7.63936L65.9238 7.62936C61.1713 7.62105 60.1733 7.63174 60.0089 7.69256ZM30.1658 7.82437C29.9184 7.84888 29.5253 7.90828 29.2924 7.95629C29.0595 8.0043 28.6273 8.12383 28.3319 8.22192C28.0365 8.32001 27.572 8.51195 27.2997 8.64853C27.0273 8.78505 26.5931 9.04125 26.3348 9.2179C26.0765 9.39449 25.6758 9.71714 25.4443 9.93486C25.2129 10.1526 24.8364 10.5799 24.6077 10.8845C24.379 11.1891 24.0497 11.715 23.8758 12.0533C23.7019 12.3915 23.4756 12.9304 23.3729 13.2508C23.2702 13.5712 23.1442 14.0595 23.0931 14.336C23.0281 14.687 23.0003 15.1019 23.0007 15.712C23.0013 16.3112 23.031 16.7517 23.0954 17.1148C23.1471 17.406 23.2792 17.9188 23.3891 18.2544C23.4989 18.59 23.6902 19.0664 23.8141 19.3131C23.938 19.5598 24.1224 19.8926 24.2239 20.0527C24.3253 20.2129 24.5418 20.5191 24.7048 20.7332C24.8679 20.9474 25.2495 21.336 25.5529 21.5968C25.8562 21.8576 26.2804 22.1897 26.4954 22.3348C26.7105 22.4799 27.1167 22.7169 27.3984 22.8616C27.6799 23.0063 28.126 23.1937 28.3896 23.278C28.6532 23.3623 29.0595 23.4706 29.2924 23.5186C29.5253 23.5667 29.9898 23.6299 30.3246 23.659C30.7426 23.6954 31.1274 23.6944 31.5524 23.6556C31.8929 23.6246 32.3455 23.563 32.5582 23.5187C32.7709 23.4744 33.125 23.3803 33.3451 23.3095C33.5652 23.2388 33.9345 23.101 34.1656 23.0035C34.3968 22.906 34.8215 22.678 35.1094 22.497C35.3973 22.3159 35.882 21.9599 36.1865 21.7058C36.5974 21.3628 36.8586 21.0869 37.2001 20.635C37.4531 20.3002 37.7963 19.7601 37.9627 19.4347C38.1291 19.1094 38.3471 18.5972 38.4471 18.2966C38.5471 17.996 38.6721 17.5476 38.7249 17.3001C38.8001 16.947 38.8208 16.611 38.8208 15.7385C38.8208 14.8657 38.8002 14.5316 38.7252 14.1835C38.6726 13.9397 38.569 13.5466 38.495 13.3101C38.4209 13.0735 38.2884 12.7132 38.2005 12.5094C38.1126 12.3056 37.915 11.9241 37.7613 11.6616C37.6077 11.3992 37.3165 10.9702 37.1142 10.7085C36.9119 10.4467 36.6125 10.1101 36.4489 9.96059C36.2853 9.81104 35.9935 9.5705 35.8007 9.42604C35.6078 9.28158 35.2648 9.05147 35.0386 8.91469C34.8123 8.77796 34.4124 8.57341 34.1499 8.46023C33.8873 8.34706 33.4612 8.19286 33.2028 8.11759C32.9445 8.04231 32.5188 7.9466 32.2568 7.90489C31.9947 7.86318 31.5183 7.81797 31.1981 7.80442C30.8778 7.79087 30.4133 7.79986 30.1658 7.82437ZM48.9579 7.82421C48.7105 7.84883 48.3191 7.90849 48.0883 7.95676C47.8574 8.00504 47.4268 8.12378 47.1314 8.22054C46.836 8.31731 46.3936 8.49713 46.1483 8.6201C45.9031 8.74312 45.5476 8.94391 45.3583 9.06635C45.1691 9.18879 44.8307 9.43695 44.6065 9.61783C44.3822 9.79871 44.013 10.1614 43.786 10.4238C43.5589 10.6861 43.2477 11.0832 43.0943 11.3061C42.9409 11.529 42.6973 11.9504 42.5529 12.2427C42.4086 12.535 42.2172 13.0004 42.1276 13.277C42.0379 13.5536 41.9182 14.0502 41.8616 14.3806C41.7938 14.7761 41.7588 15.2284 41.759 15.704C41.7592 16.1015 41.7951 16.6649 41.8388 16.956C41.8825 17.2472 41.9797 17.6995 42.0548 17.9612C42.1299 18.2228 42.3032 18.6877 42.4399 18.9941C42.5767 19.3006 42.8207 19.7535 42.9822 20.0005C43.1437 20.2476 43.448 20.6582 43.6586 20.9129C43.869 21.1677 44.0661 21.3761 44.0964 21.3761C44.1267 21.3761 44.3204 21.5325 44.5268 21.7235C44.7332 21.9146 45.1059 22.2072 45.3551 22.3736C45.6044 22.5401 46.014 22.7766 46.2655 22.8992C46.517 23.0219 46.9376 23.1925 47.2003 23.2783C47.4629 23.3641 47.8646 23.473 48.0929 23.5202C48.3212 23.5674 48.778 23.6295 49.1079 23.6582C49.5187 23.694 49.9013 23.6924 50.3218 23.6533C50.6594 23.6219 51.1398 23.5514 51.3893 23.4966C51.6388 23.4418 52.0811 23.3207 52.3723 23.2274C52.6634 23.1341 52.9731 23.0222 53.0604 22.9786C53.1478 22.935 53.4074 22.7894 53.6373 22.655C53.8672 22.5205 54.1658 22.3112 54.301 22.1897C54.4361 22.0682 54.6172 21.8414 54.7034 21.6857C54.8464 21.4277 54.8602 21.3581 54.8602 20.8997C54.8602 20.4834 54.8395 20.3547 54.7398 20.1523C54.6734 20.0177 54.5186 19.8063 54.3957 19.6824C54.2727 19.5585 54.0433 19.3972 53.8859 19.3238C53.7073 19.2406 53.4686 19.1812 53.2507 19.1658C53.0587 19.1522 52.804 19.1674 52.6846 19.1998C52.5653 19.2321 52.3867 19.3162 52.2876 19.3869C52.1886 19.4575 51.9867 19.5864 51.8391 19.6734C51.6914 19.7602 51.4412 19.8706 51.2832 19.9185C51.1252 19.9665 50.8054 20.0401 50.5725 20.0821C50.3396 20.1241 49.9346 20.1581 49.6726 20.1576C49.4105 20.1571 49.0297 20.1215 48.8263 20.0784C48.6228 20.0353 48.3085 19.9508 48.1277 19.8907C47.9469 19.8305 47.6012 19.6627 47.3595 19.5177C47.1177 19.3728 46.7695 19.1063 46.5857 18.9256C46.4018 18.7449 46.1452 18.4381 46.0154 18.2439C45.8855 18.0497 45.7103 17.7236 45.6261 17.5192C45.5418 17.3149 45.4295 16.9616 45.3765 16.7343C45.3127 16.4603 45.2804 16.1153 45.2808 15.712C45.281 15.3249 45.3137 14.9682 45.3704 14.7323C45.4195 14.5283 45.5296 14.1916 45.6152 13.984C45.7008 13.7765 45.8586 13.4695 45.9658 13.3019C46.0731 13.1342 46.2839 12.8665 46.4345 12.707C46.585 12.5474 46.8392 12.3172 46.9993 12.1954C47.1595 12.0736 47.3977 11.9124 47.5287 11.8371C47.6597 11.7619 47.9204 11.638 48.108 11.5618C48.2957 11.4856 48.6404 11.3846 48.8742 11.3372C49.1887 11.2734 49.4654 11.2582 49.9384 11.2787C50.4749 11.3019 50.658 11.3338 51.0779 11.4775C51.3531 11.5716 51.6735 11.6968 51.79 11.7557C51.9064 11.8145 52.1327 11.9518 52.2929 12.0606C52.453 12.1695 52.7215 12.3992 52.8895 12.571C53.0575 12.7429 53.2793 13.0018 53.3824 13.1464C53.4855 13.291 53.6418 13.5599 53.7299 13.744C53.8179 13.9281 53.9571 14.2926 54.0391 14.5541C54.1211 14.8156 54.2528 15.1229 54.3317 15.2368C54.4107 15.3507 54.5563 15.5058 54.6554 15.5814C54.7545 15.6569 54.9467 15.7679 55.0826 15.8281C55.2906 15.92 55.4024 15.9332 55.7889 15.9112C56.1777 15.889 56.2984 15.8582 56.5756 15.7104C56.7557 15.6145 56.974 15.4464 57.0606 15.337C57.1472 15.2277 57.27 15.0231 57.3335 14.8825C57.4206 14.6895 57.4492 14.5232 57.4501 14.2034C57.4511 13.8518 57.4184 13.6842 57.2574 13.2161C57.1508 12.9059 56.9638 12.4533 56.8419 12.2103C56.72 11.9672 56.5204 11.6135 56.3982 11.4243C56.2761 11.235 55.9934 10.8607 55.7701 10.5924C55.5467 10.3242 55.1792 9.94629 54.9533 9.75271C54.7274 9.55912 54.3759 9.28767 54.1721 9.1494C53.9683 9.01119 53.5991 8.78923 53.3516 8.65615C53.1041 8.52307 52.6109 8.31747 52.2554 8.19926C51.9 8.08106 51.3879 7.94925 51.1173 7.90632C50.8468 7.86344 50.3515 7.81734 50.0166 7.80389C49.6818 7.7905 49.2054 7.79965 48.9579 7.82421ZM80.1925 7.82919C79.9465 7.85291 79.554 7.91103 79.3204 7.95835C79.0867 8.00573 78.6686 8.11658 78.3914 8.20472C78.1141 8.29286 77.6702 8.46849 77.4051 8.59501C77.1399 8.72147 76.6992 8.97419 76.4258 9.1565C76.1289 9.35437 75.7045 9.71285 75.3727 10.0459C75.067 10.3527 74.662 10.8247 74.4728 11.0946C74.2836 11.3646 74.0046 11.8169 73.8529 12.0998C73.7012 12.3826 73.4823 12.9002 73.3665 13.2499C73.2508 13.5996 73.1142 14.1001 73.0629 14.3622C72.9967 14.7009 72.9701 15.0911 72.9706 15.712C72.9713 16.3102 73.0004 16.7415 73.0631 17.0805C73.1134 17.3528 73.2158 17.7696 73.2906 18.0069C73.3655 18.2441 73.5142 18.6407 73.6212 18.8882C73.7283 19.1356 73.918 19.5125 74.043 19.7256C74.1679 19.9387 74.4466 20.3474 74.6623 20.6337C74.895 20.9427 75.2289 21.3017 75.4836 21.5167C75.7195 21.716 76.126 22.0356 76.3868 22.2269C76.6476 22.4183 77.1049 22.6973 77.4029 22.8469C77.701 22.9966 78.162 23.19 78.4274 23.2767C78.6927 23.3634 79.0858 23.4707 79.301 23.5151C79.5162 23.5596 79.9746 23.6222 80.3198 23.6544C80.7808 23.6972 81.1224 23.6969 81.6069 23.6532C81.9697 23.6203 82.5382 23.5249 82.8704 23.441C83.2025 23.3571 83.7298 23.1842 84.0421 23.0567C84.3544 22.9293 84.832 22.6871 85.1033 22.5186C85.3747 22.35 85.7744 22.0691 85.9918 21.8943C86.2091 21.7194 86.5414 21.4059 86.7301 21.1975C86.9188 20.9891 87.2165 20.6284 87.3916 20.396C87.5667 20.1635 87.8635 19.6637 88.0512 19.2852C88.239 18.9067 88.4517 18.4122 88.5241 18.1862C88.5964 17.9603 88.6912 17.6028 88.7347 17.3919C88.7783 17.1809 88.8395 16.7379 88.8706 16.4074C88.9111 15.9783 88.9109 15.6158 88.8699 15.1401C88.8383 14.7735 88.7776 14.3056 88.735 14.1003C88.6923 13.895 88.5833 13.5006 88.4929 13.2241C88.4024 12.9475 88.1978 12.4639 88.0381 12.1495C87.8785 11.8351 87.6167 11.3944 87.4564 11.1702C87.2961 10.946 87.0311 10.6096 86.8676 10.4227C86.7041 10.2358 86.3913 9.92941 86.1725 9.74181C85.9536 9.5542 85.6074 9.2873 85.4029 9.14861C85.1985 9.00992 84.7935 8.77779 84.503 8.63275C84.2125 8.48771 83.7842 8.30661 83.5513 8.23033C83.3184 8.154 82.9253 8.04422 82.6779 7.98636C82.4304 7.92845 81.9659 7.85651 81.6456 7.82644C81.3254 7.79637 80.968 7.77504 80.8516 7.77895C80.7351 7.78292 80.4385 7.80553 80.1925 7.82919ZM31.7747 11.3454C31.9875 11.3893 32.3107 11.4858 32.4927 11.5598C32.6748 11.6338 32.9463 11.7637 33.0961 11.8486C33.2459 11.9334 33.5259 12.1288 33.7183 12.2826C33.9107 12.4365 34.1905 12.7053 34.3401 12.88C34.4896 13.0547 34.7197 13.412 34.8514 13.674C34.9831 13.936 35.1393 14.341 35.1985 14.5739C35.2578 14.8068 35.3194 15.2475 35.3355 15.5532C35.3583 15.9893 35.342 16.218 35.2596 16.6145C35.2018 16.8925 35.0946 17.2684 35.0213 17.4498C34.9481 17.6312 34.8083 17.912 34.7106 18.0738C34.6129 18.2357 34.4327 18.486 34.3101 18.63C34.1875 18.774 33.9519 19.0074 33.7866 19.1485C33.6212 19.2896 33.3046 19.5016 33.0831 19.6195C32.8615 19.7375 32.4659 19.8996 32.2038 19.9798C31.7756 20.1108 31.6471 20.1256 30.9334 20.1268C30.33 20.1278 30.0567 20.1053 29.7953 20.0332C29.606 19.981 29.2524 19.8454 29.0095 19.732C28.7666 19.6185 28.4212 19.4209 28.2419 19.2929C28.0627 19.1649 27.8035 18.9398 27.666 18.7926C27.5284 18.6454 27.2984 18.345 27.1547 18.125C27.0111 17.905 26.8331 17.5639 26.7591 17.367C26.6852 17.1701 26.585 16.8541 26.5366 16.6649C26.4796 16.4422 26.4484 16.1059 26.4483 15.712C26.4482 15.2581 26.4767 14.9963 26.5606 14.6826C26.6224 14.4513 26.7668 14.0702 26.8814 13.8357C26.996 13.6012 27.2178 13.2426 27.3743 13.0388C27.5309 12.835 27.824 12.5292 28.0257 12.3593C28.2274 12.1893 28.5389 11.9683 28.7178 11.8682C28.8967 11.768 29.1945 11.6245 29.3795 11.5492C29.5645 11.474 29.8588 11.3812 30.0335 11.3432C30.2082 11.305 30.5843 11.272 30.8694 11.2696C31.1546 11.2674 31.5619 11.3014 31.7747 11.3454ZM82.2279 11.446C82.4608 11.525 82.8062 11.6737 82.9955 11.7763C83.1847 11.879 83.5104 12.093 83.7193 12.252C83.9282 12.4109 84.2203 12.6887 84.3684 12.8693C84.5166 13.0498 84.7298 13.3763 84.8423 13.5946C84.9547 13.813 85.095 14.1346 85.1539 14.3092C85.2128 14.4839 85.2907 14.8129 85.3271 15.0402C85.3688 15.3012 85.381 15.6622 85.3604 16.0195C85.3424 16.3308 85.2894 16.7284 85.2426 16.9031C85.1959 17.0778 85.0563 17.4351 84.9324 17.6971C84.8085 17.9591 84.5634 18.3537 84.3879 18.5738C84.2124 18.794 83.9166 19.0885 83.7306 19.2283C83.5447 19.3681 83.2377 19.5598 83.0484 19.6543C82.8592 19.7488 82.5564 19.8768 82.3756 19.9386C82.1948 20.0005 81.8732 20.0783 81.661 20.1116C81.4362 20.1468 81.032 20.1592 80.6928 20.1416C80.3534 20.1238 79.9487 20.0653 79.7225 20.0012C79.5091 19.9407 79.1681 19.809 78.9648 19.7085C78.7615 19.608 78.5192 19.4729 78.4264 19.4084C78.3337 19.3438 78.1336 19.1863 77.9818 19.0583C77.83 18.9304 77.5764 18.6552 77.4181 18.4467C77.2598 18.2382 77.0473 17.9009 76.9458 17.6971C76.8443 17.4933 76.7082 17.1598 76.6432 16.956C76.5559 16.6822 76.5181 16.4052 76.4982 15.895C76.4754 15.3088 76.4882 15.137 76.583 14.7569C76.6444 14.5107 76.8031 14.0892 76.9356 13.8203C77.0681 13.5514 77.3163 13.1575 77.4872 12.9451C77.6581 12.7326 77.9713 12.4207 78.1832 12.2519C78.395 12.0831 78.7486 11.855 78.9689 11.745C79.1891 11.635 79.4903 11.5054 79.638 11.457C79.7858 11.4086 80.0121 11.3468 80.1409 11.3198C80.2698 11.2927 80.6967 11.2777 81.0898 11.2865C81.7015 11.3001 81.8655 11.3231 82.2279 11.446ZM13.0474 13.1701C13.2388 13.2569 13.5459 13.4353 13.7298 13.5664C13.9136 13.6977 14.1745 13.9304 14.3096 14.0836C14.4447 14.2368 14.6497 14.5527 14.7652 14.7857C14.9158 15.0892 14.9929 15.3317 15.0375 15.6421C15.0923 16.0241 15.0867 16.1488 14.9896 16.7008C14.9291 17.045 14.8279 17.4625 14.7647 17.6287C14.7015 17.7948 14.5314 18.1121 14.3867 18.3338C14.242 18.5555 14.0146 18.8534 13.8813 18.9959C13.748 19.1383 13.4801 19.3635 13.286 19.4961C13.0918 19.6288 12.7548 19.8024 12.5371 19.8818L12.1413 20.0263L8.21082 20.0423C5.00838 20.0554 4.28036 20.0455 4.28036 19.9894C4.28036 19.9514 4.84015 18.3753 5.52434 16.4868C6.20853 14.5984 6.76833 13.044 6.76833 13.0328C6.76833 13.0215 8.10283 13.0123 9.73388 13.0123H12.6994L13.0474 13.1701Z" fill="#171715"/>
</svg>
