<svg xmlns="http://www.w3.org/2000/svg" width="123.999" height="123.999" viewBox="0 0 14 14">
  <metadata><?xpacket begin="﻿" id="W5M0MpCehiHzreSzNTczkc9d"?>
<x:xmpmeta xmlns:x="adobe:ns:meta/" x:xmptk="Adobe XMP Core 5.6-c142 79.160924, 2017/07/13-01:06:39        ">
   <rdf:RDF xmlns:rdf="http://www.w3.org/1999/02/22-rdf-syntax-ns#">
      <rdf:Description rdf:about=""/>
   </rdf:RDF>
</x:xmpmeta>
                                                                                                    
                                                                                                    
                                                                                                    
                                                                                                    
                                                                                                    
                                                                                                    
                                                                                                    
                                                                                                    
                                                                                                    
                                                                                                    
                                                                                                    
                                                                                                    
                                                                                                    
                                                                                                    
                                                                                                    
                                                                                                    
                                                                                                    
                                                                                                    
                                                                                                    
                                                                                                    
                           
<?xpacket end="w"?></metadata>
<defs>
    <style>
      .cls-1 {
        fill: #d39a6e;
        fill-rule: evenodd;
      }
    </style>
  </defs>
  <path id="Forma_1" data-name="Forma 1" class="cls-1" d="M403.684,24.072L401.522,21.9a1.124,1.124,0,0,0-1.589.03l-1.089,1.094-0.215-.12a10.23,10.23,0,0,1-4.517-4.539c-0.04-.073-0.079-0.144-0.117-0.211l0.731-.733,0.359-.361a1.135,1.135,0,0,0,.029-1.6l-2.161-2.172a1.123,1.123,0,0,0-1.589.03l-0.61.615,0.017,0.017a3.548,3.548,0,0,0-.5.889,3.69,3.69,0,0,0-.223.9c-0.286,2.377.8,4.55,3.73,7.5,4.056,4.075,7.325,3.767,7.466,3.751a3.634,3.634,0,0,0,.9-0.227,3.5,3.5,0,0,0,.882-0.5l0.014,0.012,0.617-.608A1.137,1.137,0,0,0,403.684,24.072Z" transform="translate(-390 -13)"/>
</svg>
