<svg xmlns="http://www.w3.org/2000/svg" width="124" height="126.331" viewBox="0 0 10 10.188">
  <metadata><?xpacket begin="﻿" id="W5M0MpCehiHzreSzNTczkc9d"?>
<x:xmpmeta xmlns:x="adobe:ns:meta/" x:xmptk="Adobe XMP Core 5.6-c142 79.160924, 2017/07/13-01:06:39        ">
   <rdf:RDF xmlns:rdf="http://www.w3.org/1999/02/22-rdf-syntax-ns#">
      <rdf:Description rdf:about=""/>
   </rdf:RDF>
</x:xmpmeta>
                                                                                                    
                                                                                                    
                                                                                                    
                                                                                                    
                                                                                                    
                                                                                                    
                                                                                                    
                                                                                                    
                                                                                                    
                                                                                                    
                                                                                                    
                                                                                                    
                                                                                                    
                                                                                                    
                                                                                                    
                                                                                                    
                                                                                                    
                                                                                                    
                                                                                                    
                                                                                                    
                           
<?xpacket end="w"?></metadata>
<defs>
    <style>
      .cls-1 {
        fill: #888886;
        fill-rule: evenodd;
      }
    </style>
  </defs>
  <path id="Forma_1_копия_7" data-name="Forma 1 копия 7" class="cls-1" d="M419.774,555.915l-1.544-1.547a0.8,0.8,0,0,0-1.135.021l-0.777.779-0.154-.085a7.3,7.3,0,0,1-3.227-3.234c-0.029-.052-0.056-0.1-0.083-0.149l0.522-.523,0.256-.257a0.806,0.806,0,0,0,.021-1.137l-1.544-1.547a0.8,0.8,0,0,0-1.135.021l-0.435.439,0.012,0.011a2.539,2.539,0,0,0-.359.634,2.666,2.666,0,0,0-.159.642c-0.2,1.694.568,3.241,2.664,5.34,2.9,2.9,5.232,2.683,5.333,2.673a2.6,2.6,0,0,0,.643-0.162,2.5,2.5,0,0,0,.63-0.358l0.01,0.009,0.441-.433A0.807,0.807,0,0,0,419.774,555.915Z" transform="translate(-410 -548.031)"/>
</svg>
