<svg xmlns="http://www.w3.org/2000/svg" width="124" height="69.75" viewBox="0 0 16 9">
  <metadata><?xpacket begin="﻿" id="W5M0MpCehiHzreSzNTczkc9d"?>
<x:xmpmeta xmlns:x="adobe:ns:meta/" x:xmptk="Adobe XMP Core 5.6-c142 79.160924, 2017/07/13-01:06:39        ">
   <rdf:RDF xmlns:rdf="http://www.w3.org/1999/02/22-rdf-syntax-ns#">
      <rdf:Description rdf:about=""/>
   </rdf:RDF>
</x:xmpmeta>
                                                                                                    
                                                                                                    
                                                                                                    
                                                                                                    
                                                                                                    
                                                                                                    
                                                                                                    
                                                                                                    
                                                                                                    
                                                                                                    
                                                                                                    
                                                                                                    
                                                                                                    
                                                                                                    
                                                                                                    
                                                                                                    
                                                                                                    
                                                                                                    
                                                                                                    
                                                                                                    
                           
<?xpacket end="w"?></metadata>
<defs>
    <style>
      .cls-1 {
        fill: #292928;
        fill-rule: evenodd;
      }
    </style>
  </defs>
  <path id="Forma_1" data-name="Forma 1" class="cls-1" d="M1289.91,514.129a0.711,0.711,0,0,0-.05-0.1,8.359,8.359,0,0,0-1.59-1.816l-0.02-.016-0.01-.008v-0.008h-0.01c-0.36-.335-0.58-0.559-0.68-0.674a0.618,0.618,0,0,1-.11-0.666,5.475,5.475,0,0,1,.75-1.076q0.33-.435.54-0.7c0.96-1.259,1.37-2.064,1.25-2.415l-0.05-.082a0.523,0.523,0,0,0-.26-0.135,1.31,1.31,0,0,0-.53-0.021l-2.4.017a0.318,0.318,0,0,0-.17,0l-0.11.024-0.04.021-0.03.025a0.286,0.286,0,0,0-.09.086,0.4,0.4,0,0,0-.09.144,13.574,13.574,0,0,1-.89,1.848q-0.3.51-.57,0.883a3.881,3.881,0,0,1-.43.551,2.756,2.756,0,0,1-.32.283,0.291,0.291,0,0,1-.21.091c-0.05-.011-0.1-0.022-0.14-0.033a0.56,0.56,0,0,1-.19-0.2,0.907,0.907,0,0,1-.1-0.32q-0.015-.194-0.03-0.333c0-.093,0-0.224.01-0.394s0.01-.285.01-0.345c0-.209,0-0.434.01-0.678s0.01-.437.02-0.579,0.01-.293.01-0.452a1.815,1.815,0,0,0-.03-0.374,1.258,1.258,0,0,0-.09-0.263,0.415,0.415,0,0,0-.17-0.2,0.934,0.934,0,0,0-.28-0.111,5.586,5.586,0,0,0-1.12-.107,5.5,5.5,0,0,0-1.99.2,1.035,1.035,0,0,0-.32.247c-0.1.12-.11,0.186-0.04,0.2a1.04,1.04,0,0,1,.71.353l0.05,0.1a1.619,1.619,0,0,1,.11.378,3.5,3.5,0,0,1,.08.6,5.829,5.829,0,0,1,0,1.027c-0.03.285-.06,0.507-0.08,0.666a1.5,1.5,0,0,1-.11.386c-0.05.1-.09,0.159-0.1,0.181a0.121,0.121,0,0,1-.05.041,0.593,0.593,0,0,1-.22.041,0.512,0.512,0,0,1-.28-0.115,2.077,2.077,0,0,1-.35-0.316,4.257,4.257,0,0,1-.4-0.563,9.4,9.4,0,0,1-.47-0.855l-0.13-.238c-0.09-.153-0.2-0.377-0.34-0.67s-0.28-.576-0.39-0.85a0.509,0.509,0,0,0-.2-0.262l-0.04-.025a0.574,0.574,0,0,0-.13-0.07,0.968,0.968,0,0,0-.19-0.054l-2.29.017a0.573,0.573,0,0,0-.47.156l-0.03.049a0.228,0.228,0,0,0-.03.132,0.742,0.742,0,0,0,.05.222c0.33,0.772.7,1.517,1.09,2.234s0.73,1.3,1.02,1.733,0.58,0.852.88,1.241,0.5,0.638.6,0.748a2.275,2.275,0,0,0,.23.246l0.2,0.2a5.447,5.447,0,0,0,.59.473c0.26,0.183.55,0.364,0.86,0.542a4.722,4.722,0,0,0,1.09.436,3.888,3.888,0,0,0,1.22.135h0.96a0.671,0.671,0,0,0,.44-0.181l0.03-.041a0.378,0.378,0,0,0,.07-0.152,0.81,0.81,0,0,0,.02-0.226,3.082,3.082,0,0,1,.06-0.636,1.707,1.707,0,0,1,.14-0.427,0.9,0.9,0,0,1,.18-0.243,0.813,0.813,0,0,1,.14-0.119,0.448,0.448,0,0,1,.54.1,2.866,2.866,0,0,1,.51.476c0.15,0.189.35,0.4,0.57,0.637a3.611,3.611,0,0,0,.58.526l0.17,0.1a1.986,1.986,0,0,0,.43.18,0.946,0.946,0,0,0,.47.041l2.13-.033a0.987,0.987,0,0,0,.49-0.1,0.4,0.4,0,0,0,.21-0.226,0.658,0.658,0,0,0,0-.28A0.969,0.969,0,0,0,1289.91,514.129Z" transform="translate(-1274 -506)"/>
</svg>
