<svg xmlns="http://www.w3.org/2000/svg" width="62" height="124" viewBox="0 0 8 16">
  <metadata><?xpacket begin="﻿" id="W5M0MpCehiHzreSzNTczkc9d"?>
<x:xmpmeta xmlns:x="adobe:ns:meta/" x:xmptk="Adobe XMP Core 5.6-c142 79.160924, 2017/07/13-01:06:39        ">
   <rdf:RDF xmlns:rdf="http://www.w3.org/1999/02/22-rdf-syntax-ns#">
      <rdf:Description rdf:about=""/>
   </rdf:RDF>
</x:xmpmeta>
                                                                                                    
                                                                                                    
                                                                                                    
                                                                                                    
                                                                                                    
                                                                                                    
                                                                                                    
                                                                                                    
                                                                                                    
                                                                                                    
                                                                                                    
                                                                                                    
                                                                                                    
                                                                                                    
                                                                                                    
                                                                                                    
                                                                                                    
                                                                                                    
                                                                                                    
                                                                                                    
                           
<?xpacket end="w"?></metadata>
<defs>
    <style>
      .cls-1 {
        fill: #292928;
        fill-rule: evenodd;
      }
    </style>
  </defs>
  <path id="Forma_1" data-name="Forma 1" class="cls-1" d="M1332.7,502l-1.92,0c-2.16,0-3.55,1.546-3.55,3.938v1.816h-1.93a0.311,0.311,0,0,0-.3.326v2.631a0.318,0.318,0,0,0,.3.326h1.93v6.638a0.318,0.318,0,0,0,.3.326h2.52a0.312,0.312,0,0,0,.3-0.326v-6.638h2.26a0.318,0.318,0,0,0,.3-0.326v-2.631a0.327,0.327,0,0,0-.09-0.231,0.289,0.289,0,0,0-.21-0.1h-2.26v-1.539a0.9,0.9,0,0,1,1.06-1.116h1.29a0.319,0.319,0,0,0,.3-0.327v-2.442A0.318,0.318,0,0,0,1332.7,502Z" transform="translate(-1325 -502)"/>
</svg>
